<svg width="1005" height="1000" fill="none" xmlns="http://www.w3.org/2000/svg"><path fill="#5F5F5F" d="M0 0h1000v1000H0z"/><g filter="url(#filter0_d)"><path d="M692.382 492.616l307.998 310.5v-491.5s-48.798-61.476-96.998-85.5c-64.326-32.062-89.566-36.379-148-23-64.867 14.852-116.5 89.5-123.5 108.5s-6 91 0 106 60.5 75 60.5 75z" fill="#C94B4B"/><path d="M692.382 492.616l307.998 310.5v-491.5s-48.798-61.476-96.998-85.5c-64.326-32.062-89.566-36.379-148-23-64.867 14.852-116.5 89.5-123.5 108.5s-6 91 0 106 60.5 75 60.5 75z" stroke="#fff"/></g><defs><filter id="filter0_d" x="622.5" y="195.5" width="382.382" height="616.83" filterUnits="userSpaceOnUse" color-interpolation-filters="sRGB"><feFlood flood-opacity="0" result="BackgroundImageFix"/><feColorMatrix in="SourceAlpha" values="0 0 0 0 0 0 0 0 0 0 0 0 0 0 0 0 0 0 127 0"/><feOffset dy="4"/><feGaussianBlur stdDeviation="2"/><feColorMatrix values="0 0 0 0 0 0 0 0 0 0 0 0 0 0 0 0 0 0 0.25 0"/><feBlend in2="BackgroundImageFix" result="effect1_dropShadow"/><feBlend in="SourceGraphic" in2="effect1_dropShadow" result="shape"/></filter></defs></svg>