<svg width="1006" height="1000" fill="none" xmlns="http://www.w3.org/2000/svg"><path d="M1005.38 1000H5.382V0h999.998v1000z" fill="#5F5F5F"/><g filter="url(#filter0_d)"><path d="M313 492.616L5 803.116v-491.5s48.8-61.476 97-85.5c64.326-32.062 89.567-36.379 148-23 64.867 14.852 116.5 89.5 123.5 108.5s6 91 0 106-60.5 75-60.5 75z" fill="#C94B4B"/><path d="M313 492.616L5 803.116v-491.5s48.8-61.476 97-85.5c64.326-32.062 89.567-36.379 148-23 64.867 14.852 116.5 89.5 123.5 108.5s6 91 0 106-60.5 75-60.5 75z" stroke="#fff"/></g><defs><filter id="filter0_d" x=".5" y="195.5" width="382.382" height="616.83" filterUnits="userSpaceOnUse" color-interpolation-filters="sRGB"><feFlood flood-opacity="0" result="BackgroundImageFix"/><feColorMatrix in="SourceAlpha" values="0 0 0 0 0 0 0 0 0 0 0 0 0 0 0 0 0 0 127 0"/><feOffset dy="4"/><feGaussianBlur stdDeviation="2"/><feColorMatrix values="0 0 0 0 0 0 0 0 0 0 0 0 0 0 0 0 0 0 0.25 0"/><feBlend in2="BackgroundImageFix" result="effect1_dropShadow"/><feBlend in="SourceGraphic" in2="effect1_dropShadow" result="shape"/></filter></defs></svg>