<svg width="1005" height="1000" viewBox="0 0 1005 1000" fill="none" xmlns="http://www.w3.org/2000/svg">
<rect width="1000" height="1000" fill="#5F5F5F"/>
<g filter="url(#filter0_d)">
<path d="M692.382 492.616L1000.38 803.116V311.616C1000.38 311.616 951.582 250.14 903.382 226.116C839.056 194.054 813.816 189.737 755.382 203.116C690.515 217.968 638.882 292.616 631.882 311.616C624.882 330.616 625.882 402.616 631.882 417.616C637.882 432.616 692.382 492.616 692.382 492.616Z" fill="#C94B4B"/>
<path d="M692.382 492.616L1000.38 803.116V311.616C1000.38 311.616 951.582 250.14 903.382 226.116C839.056 194.054 813.816 189.737 755.382 203.116C690.515 217.968 638.882 292.616 631.882 311.616C624.882 330.616 625.882 402.616 631.882 417.616C637.882 432.616 692.382 492.616 692.382 492.616Z" stroke="white"/>
</g>
<defs>
<filter id="filter0_d" x="622.5" y="195.5" width="382.382" height="616.83" filterUnits="userSpaceOnUse" color-interpolation-filters="sRGB">
<feFlood flood-opacity="0" result="BackgroundImageFix"/>
<feColorMatrix in="SourceAlpha" type="matrix" values="0 0 0 0 0 0 0 0 0 0 0 0 0 0 0 0 0 0 127 0"/>
<feOffset dy="4"/>
<feGaussianBlur stdDeviation="2"/>
<feColorMatrix type="matrix" values="0 0 0 0 0 0 0 0 0 0 0 0 0 0 0 0 0 0 0.25 0"/>
<feBlend mode="normal" in2="BackgroundImageFix" result="effect1_dropShadow"/>
<feBlend mode="normal" in="SourceGraphic" in2="effect1_dropShadow" result="shape"/>
</filter>
</defs>
</svg>
