<svg width="1006" height="1000" viewBox="0 0 1006 1000" fill="none" xmlns="http://www.w3.org/2000/svg">
<path d="M1005.38 1000H5.3822V0H1005.38V1000Z" fill="#5F5F5F"/>
<g filter="url(#filter0_d)">
<path d="M313 492.616L5.00003 803.116V311.616C5.00003 311.616 53.7999 250.14 102 226.116C166.326 194.054 191.567 189.737 250 203.116C314.867 217.968 366.5 292.616 373.5 311.616C380.5 330.616 379.5 402.616 373.5 417.616C367.5 432.616 313 492.616 313 492.616Z" fill="#C94B4B"/>
<path d="M313 492.616L5.00003 803.116V311.616C5.00003 311.616 53.7999 250.14 102 226.116C166.326 194.054 191.567 189.737 250 203.116C314.867 217.968 366.5 292.616 373.5 311.616C380.5 330.616 379.5 402.616 373.5 417.616C367.5 432.616 313 492.616 313 492.616Z" stroke="white"/>
</g>
<defs>
<filter id="filter0_d" x="0.5" y="195.5" width="382.382" height="616.83" filterUnits="userSpaceOnUse" color-interpolation-filters="sRGB">
<feFlood flood-opacity="0" result="BackgroundImageFix"/>
<feColorMatrix in="SourceAlpha" type="matrix" values="0 0 0 0 0 0 0 0 0 0 0 0 0 0 0 0 0 0 127 0"/>
<feOffset dy="4"/>
<feGaussianBlur stdDeviation="2"/>
<feColorMatrix type="matrix" values="0 0 0 0 0 0 0 0 0 0 0 0 0 0 0 0 0 0 0.25 0"/>
<feBlend mode="normal" in2="BackgroundImageFix" result="effect1_dropShadow"/>
<feBlend mode="normal" in="SourceGraphic" in2="effect1_dropShadow" result="shape"/>
</filter>
</defs>
</svg>
